<mxfile host="app.diagrams.net" agent="Mozilla/5.0 (Windows NT 10.0; Win64; x64) AppleWebKit/537.36 (KHTML, like Gecko) Chrome/135.0.0.0 Safari/537.36" version="27.0.1">
  <diagram name="ページ1" id="TxDukaWz2qpu_NlcG7qb">
    <mxGraphModel dx="1489" dy="814" grid="1" gridSize="10" guides="1" tooltips="1" connect="1" arrows="1" fold="1" page="1" pageScale="1" pageWidth="1169" pageHeight="827" background="#FFFFFF" math="0" shadow="0">
      <root>
        <mxCell id="0" />
        <mxCell id="1" parent="0" />
        <mxCell id="NPJ4ueAbHJdc4zphZM1v-1" value="&lt;font style=&quot;font-size: 15px;&quot;&gt;アーキテクチャ&lt;/font&gt;" style="rounded=0;whiteSpace=wrap;html=1;" vertex="1" parent="1">
          <mxGeometry x="240" y="40" width="200" height="60" as="geometry" />
        </mxCell>
        <mxCell id="NPJ4ueAbHJdc4zphZM1v-2" value="&lt;font style=&quot;font-size: 15px;&quot;&gt;ユーザー登録&lt;/font&gt;" style="rounded=0;whiteSpace=wrap;html=1;" vertex="1" parent="1">
          <mxGeometry x="440" y="40" width="540" height="60" as="geometry" />
        </mxCell>
        <mxCell id="NPJ4ueAbHJdc4zphZM1v-3" value="&lt;font style=&quot;font-size: 15px;&quot;&gt;RegistrationLogic.java&lt;/font&gt;" style="rounded=0;whiteSpace=wrap;html=1;" vertex="1" parent="1">
          <mxGeometry x="460" y="170" width="210" height="66" as="geometry" />
        </mxCell>
        <mxCell id="NPJ4ueAbHJdc4zphZM1v-4" value="&lt;font style=&quot;font-size: 15px;&quot;&gt;Registration.java&lt;/font&gt;" style="rounded=0;whiteSpace=wrap;html=1;" vertex="1" parent="1">
          <mxGeometry x="495" y="348" width="140" height="66" as="geometry" />
        </mxCell>
        <mxCell id="NPJ4ueAbHJdc4zphZM1v-5" value="&lt;font style=&quot;font-size: 15px;&quot;&gt;registration.jsp&lt;/font&gt;" style="rounded=0;whiteSpace=wrap;html=1;" vertex="1" parent="1">
          <mxGeometry x="70" y="348" width="140" height="66" as="geometry" />
        </mxCell>
        <mxCell id="NPJ4ueAbHJdc4zphZM1v-6" value="&lt;font style=&quot;font-size: 15px;&quot;&gt;registrationResult.jsp&lt;/font&gt;" style="rounded=0;whiteSpace=wrap;html=1;" vertex="1" parent="1">
          <mxGeometry x="480" y="620" width="170" height="66" as="geometry" />
        </mxCell>
        <mxCell id="NPJ4ueAbHJdc4zphZM1v-7" value="&lt;font style=&quot;font-size: 15px;&quot;&gt;UserDAO.java&lt;/font&gt;" style="rounded=0;whiteSpace=wrap;html=1;" vertex="1" parent="1">
          <mxGeometry x="940" y="348" width="140" height="66" as="geometry" />
        </mxCell>
        <mxCell id="NPJ4ueAbHJdc4zphZM1v-8" value="" style="endArrow=classic;html=1;rounded=0;strokeWidth=3;exitX=1;exitY=0.5;exitDx=0;exitDy=0;entryX=0;entryY=0.5;entryDx=0;entryDy=0;" edge="1" parent="1" source="NPJ4ueAbHJdc4zphZM1v-5" target="NPJ4ueAbHJdc4zphZM1v-4">
          <mxGeometry width="50" height="50" relative="1" as="geometry">
            <mxPoint x="230" y="370" as="sourcePoint" />
            <mxPoint x="450" y="380" as="targetPoint" />
          </mxGeometry>
        </mxCell>
        <mxCell id="NPJ4ueAbHJdc4zphZM1v-9" value="&lt;font style=&quot;font-size: 19px;&quot;&gt;post&lt;/font&gt;" style="text;html=1;align=center;verticalAlign=middle;resizable=0;points=[];autosize=1;strokeColor=none;fillColor=none;" vertex="1" parent="1">
          <mxGeometry x="310" y="380" width="60" height="40" as="geometry" />
        </mxCell>
        <mxCell id="NPJ4ueAbHJdc4zphZM1v-10" value="" style="endArrow=classic;html=1;rounded=0;strokeWidth=3;entryX=0;entryY=0.5;entryDx=0;entryDy=0;" edge="1" parent="1" target="NPJ4ueAbHJdc4zphZM1v-3">
          <mxGeometry width="50" height="50" relative="1" as="geometry">
            <mxPoint x="320" y="380" as="sourcePoint" />
            <mxPoint x="320" y="210" as="targetPoint" />
            <Array as="points">
              <mxPoint x="320" y="203" />
            </Array>
          </mxGeometry>
        </mxCell>
        <mxCell id="NPJ4ueAbHJdc4zphZM1v-11" value="&lt;font style=&quot;font-size: 19px;&quot;&gt;return&lt;/font&gt;" style="text;html=1;align=center;verticalAlign=middle;resizable=0;points=[];autosize=1;strokeColor=none;fillColor=none;" vertex="1" parent="1">
          <mxGeometry x="320" y="160" width="70" height="40" as="geometry" />
        </mxCell>
        <mxCell id="NPJ4ueAbHJdc4zphZM1v-12" value="" style="endArrow=classic;html=1;rounded=0;strokeWidth=3;exitX=1;exitY=0.5;exitDx=0;exitDy=0;entryX=0;entryY=0.5;entryDx=0;entryDy=0;" edge="1" parent="1" source="NPJ4ueAbHJdc4zphZM1v-4" target="NPJ4ueAbHJdc4zphZM1v-7">
          <mxGeometry width="50" height="50" relative="1" as="geometry">
            <mxPoint x="620" y="390" as="sourcePoint" />
            <mxPoint x="920" y="381" as="targetPoint" />
          </mxGeometry>
        </mxCell>
        <mxCell id="NPJ4ueAbHJdc4zphZM1v-13" value="" style="endArrow=classic;html=1;rounded=0;strokeWidth=3;exitX=0.5;exitY=1;exitDx=0;exitDy=0;entryX=0.5;entryY=0;entryDx=0;entryDy=0;" edge="1" parent="1" source="NPJ4ueAbHJdc4zphZM1v-4" target="NPJ4ueAbHJdc4zphZM1v-6">
          <mxGeometry width="50" height="50" relative="1" as="geometry">
            <mxPoint x="645" y="391" as="sourcePoint" />
            <mxPoint x="950" y="391" as="targetPoint" />
          </mxGeometry>
        </mxCell>
        <mxCell id="NPJ4ueAbHJdc4zphZM1v-14" value="" style="endArrow=classic;html=1;rounded=0;strokeWidth=3;exitX=0.995;exitY=0.409;exitDx=0;exitDy=0;exitPerimeter=0;" edge="1" parent="1" source="NPJ4ueAbHJdc4zphZM1v-3">
          <mxGeometry width="50" height="50" relative="1" as="geometry">
            <mxPoint x="790" y="220" as="sourcePoint" />
            <mxPoint x="790" y="380" as="targetPoint" />
            <Array as="points">
              <mxPoint x="790" y="197" />
            </Array>
          </mxGeometry>
        </mxCell>
        <mxCell id="NPJ4ueAbHJdc4zphZM1v-15" value="&lt;font style=&quot;font-size: 19px;&quot;&gt;get&lt;/font&gt;" style="text;html=1;align=center;verticalAlign=middle;resizable=0;points=[];autosize=1;strokeColor=none;fillColor=none;" vertex="1" parent="1">
          <mxGeometry x="685" y="160" width="50" height="40" as="geometry" />
        </mxCell>
        <mxCell id="NPJ4ueAbHJdc4zphZM1v-16" value="&lt;font style=&quot;font-size: 19px;&quot;&gt;データベースへINSERT&lt;/font&gt;" style="text;html=1;align=center;verticalAlign=middle;resizable=0;points=[];autosize=1;strokeColor=none;fillColor=none;" vertex="1" parent="1">
          <mxGeometry x="685" y="380" width="220" height="40" as="geometry" />
        </mxCell>
        <mxCell id="NPJ4ueAbHJdc4zphZM1v-17" value="&lt;font style=&quot;font-size: 19px;&quot;&gt;registration.jspへforward&lt;/font&gt;" style="text;html=1;align=center;verticalAlign=middle;resizable=0;points=[];autosize=1;strokeColor=none;fillColor=none;" vertex="1" parent="1">
          <mxGeometry x="560" y="490" width="230" height="40" as="geometry" />
        </mxCell>
        <mxCell id="NPJ4ueAbHJdc4zphZM1v-18" value="&lt;span style=&quot;font-size: 19px;&quot;&gt;リクエストスコープでmessage/errorを渡す&lt;/span&gt;" style="text;html=1;align=center;verticalAlign=middle;resizable=0;points=[];autosize=1;strokeColor=none;fillColor=none;" vertex="1" parent="1">
          <mxGeometry x="660" y="633" width="390" height="40" as="geometry" />
        </mxCell>
        <mxCell id="NPJ4ueAbHJdc4zphZM1v-19" value="&lt;font style=&quot;font-size: 19px;&quot;&gt;Userインスタンス生成&lt;/font&gt;" style="text;html=1;align=center;verticalAlign=middle;resizable=0;points=[];autosize=1;strokeColor=none;fillColor=none;" vertex="1" parent="1">
          <mxGeometry x="530" y="236" width="210" height="40" as="geometry" />
        </mxCell>
        <mxCell id="NPJ4ueAbHJdc4zphZM1v-20" value="&lt;font style=&quot;font-size: 19px;&quot;&gt;RegistrationLogic.execute(user)呼び出し&lt;/font&gt;&lt;div&gt;&lt;font style=&quot;font-size: 19px;&quot;&gt;UserDAO.insertUserに処理を渡す&lt;/font&gt;&lt;/div&gt;" style="text;html=1;align=center;verticalAlign=middle;resizable=0;points=[];autosize=1;strokeColor=none;fillColor=none;" vertex="1" parent="1">
          <mxGeometry x="410" y="270" width="370" height="60" as="geometry" />
        </mxCell>
      </root>
    </mxGraphModel>
  </diagram>
</mxfile>
